<?xml version="1.0" encoding="UTF-8"?>
<svg xmlns="http://www.w3.org/2000/svg" width="26" height="26" fill="none" viewBox="0 0 26 26">
    <path stroke="#fff" stroke-miterlimit="10" stroke-width="2.5" d="M24.75 13c0 6.49-5.26 11.75-11.75 11.75S1.25 19.49 1.25 13 6.51 1.25 13 1.25 24.75 6.51 24.75 13z"/>
    <path fill="#fff" d="M13.277 14.084c-.6 0-1.084-.485-1.084-1.083V7.042c0-.598.485-1.083 1.084-1.083.599 0 1.083.485 1.083 1.083v5.959c0 .598-.484 1.083-1.083 1.083zM13.277 18.96c.705 0 1.277-.572 1.277-1.277s-.572-1.277-1.277-1.277S12 16.978 12 17.683s.572 1.277 1.277 1.277z"/>
</svg>
