<svg width="67" height="57" viewBox="0 0 67 57" fill="none" xmlns="http://www.w3.org/2000/svg">
<path opacity="0.5" d="M26.9141 0.770508V11.9766C23.3984 12.1719 20.7373 12.8311 18.9307 13.9541C17.124 15.0283 15.8545 16.8105 15.1221 19.3008C14.3896 21.7422 14.0234 25.2578 14.0234 29.8477H26.9141V56.5811H0.473633V31.166C0.473633 20.668 2.69531 12.9775 7.13867 8.09473C11.6309 3.21191 18.2227 0.770508 26.9141 0.770508ZM66.8311 0.770508V11.9766C63.3154 12.1719 60.6543 12.8066 58.8477 13.8809C57.041 14.9062 55.7227 16.6885 54.8926 19.2275C54.1113 21.7178 53.7207 25.2578 53.7207 29.8477H66.8311V56.5811H40.2441V31.166C40.2441 20.668 42.4658 12.9775 46.9092 8.09473C51.3525 3.21191 57.9932 0.770508 66.8311 0.770508Z" fill="white"/>
</svg>
