<svg fill="none" height="100" viewBox="0 0 90 100" width="90" xmlns="http://www.w3.org/2000/svg" xmlns:xlink="http://www.w3.org/1999/xlink"><clipPath id="a"><path d="m0 0h90v100h-90z"/></clipPath><g clip-path="url(#a)"><path d="m53.338 84.707c.84 2.032 1.053 4.265.614 6.418-.438 2.152-1.51 4.127-3.079 5.675-1.569 1.547-3.564 2.598-5.734 3.018-2.17.421-4.417.192-6.456-.656-2.04-.849-3.78-2.279-5-4.11-1.221-1.831-1.868-3.98-1.859-6.177.01-2.196.675-4.34 1.911-6.161s2.989-3.237 5.035-4.068c2.741-1.113 5.815-1.1 8.546.036s4.897 3.303 6.022 6.025zm-52.539-62.588c-.911-2.553-.797-5.356.317-7.827 1.115-2.471 3.145-4.421 5.669-5.445 2.523-1.024 5.347-1.044 7.884-.054 2.538.99 4.595 2.912 5.743 5.368l25.201 61.087c-2.014-.379-4.087-.311-6.072.198l-24.403-59.161c-.245-.593-.605-1.133-1.06-1.588-.456-.454-.996-.816-1.592-1.063s-1.234-.375-1.88-.377c-.645-.002-1.285.122-1.882.366-.597.243-1.14.601-1.598 1.053s-.822.99-1.07 1.581c-.25.592-.378 1.227-.38 1.868s.123 1.277.368 1.87c.142.344.215.712.214 1.084s-.076.74-.22 1.083c-.145.344-.355.655-.621.917-.265.263-.58.47-.927.612-.346.14-.717.213-1.091.212-.375-.001-.745-.075-1.09-.219-.346-.143-.66-.353-.924-.616-.264-.264-.473-.577-.615-.92l.029-.03zm85.295 43.358-33.24 13.537c1.338 1.315 2.395 2.885 3.107 4.617v.198l32.414-13.029c.346-.141.66-.349.926-.61.266-.263.477-.575.62-.918.145-.343.22-.711.221-1.083s-.072-.74-.214-1.084-.351-.657-.615-.921-.578-.473-.923-.617c-.346-.143-.716-.217-1.09-.218-.375-.001-.746.07-1.092.212l-.114-.085z" fill="#e8212b"/><path d="m49.776 19.877c3.568-1.548 6.844-1.805 9.828-.772 3.02 1.018 5.265 3.224 6.737 6.618 1.533 3.533 1.567 6.677.102 9.433-1.465 2.755-4.052 4.937-7.76 6.546l1.588 4.237-5.195 2.254-3.836-8.125 1.731-.752c3.394-1.472 5.785-3.05 7.175-4.733 1.425-1.699 1.583-3.825.475-6.38-.804-1.853-1.976-3.07-3.516-3.649-1.505-.594-3.202-.481-5.091.338-1.89.82-3.156 1.972-3.8 3.457-.645 1.485-.572 3.137.217 4.956l-5.615 2.436c-.91-2.1-1.25-4.176-1.02-6.23.232-2.054 1.025-3.915 2.38-5.583 1.39-1.684 3.256-3.034 5.6-4.05zm12.85 38.82c-1.085.47-2.154.498-3.207.082s-1.815-1.167-2.286-2.251c-.47-1.084-.497-2.153-.081-3.207.416-1.053 1.166-1.815 2.25-2.285 1.05-.456 2.101-.476 3.155-.06 1.053.416 1.815 1.167 2.285 2.251.47 1.085.498 2.154.082 3.207s-1.149 1.808-2.198 2.263z" fill="#e82c2a"/></g></svg>