<svg xmlns="http://www.w3.org/2000/svg" width="93" height="104" fill="none" viewBox="0 0 93 104">
    <path fill="#0072BC" d="M54.827 88.029c.866 2.11 1.087 4.429.634 6.664-.452 2.235-1.558 4.286-3.176 5.893-1.619 1.607-3.677 2.698-5.916 3.134-2.238.437-4.556.2-6.66-.681-2.103-.881-3.898-2.366-5.157-4.268-1.26-1.901-1.927-4.133-1.917-6.414.01-2.28.695-4.507 1.97-6.398 1.276-1.89 3.084-3.36 5.195-4.224 2.827-1.156 5.998-1.142 8.816.038 2.817 1.18 5.051 3.43 6.211 6.256zM.628 23.037c-.939-2.65-.822-5.56.328-8.127 1.15-2.566 3.244-4.591 5.847-5.654 2.604-1.064 5.516-1.084 8.134-.056 2.618 1.027 4.739 3.023 5.924 5.574l25.996 63.432c-2.078-.394-4.216-.324-6.264.206L15.42 16.979c-.253-.616-.624-1.176-1.094-1.648-.47-.472-1.027-.848-1.642-1.104-.614-.257-1.273-.39-1.939-.392-.666-.002-1.325.127-1.941.38-.616.253-1.176.625-1.649 1.094-.472.47-.847 1.027-1.104 1.642-.257.614-.39 1.273-.392 1.939-.002.666.127 1.326.38 1.942.147.357.222.74.22 1.126 0 .386-.077.768-.226 1.124-.149.357-.367.68-.64.953-.274.272-.6.488-.956.634-.358.147-.74.222-1.126.22-.387 0-.769-.077-1.125-.226-.357-.15-.68-.367-.952-.64-.273-.274-.488-.6-.635-.956l.03-.03zM88.612 68.06l-34.29 14.057c1.382 1.365 2.472 2.995 3.206 4.793v.206L90.965 73.59c.357-.147.682-.363.956-.635.273-.272.491-.596.64-.952.149-.356.226-.739.227-1.125.001-.386-.074-.769-.22-1.126-.147-.357-.363-.682-.635-.956-.273-.274-.596-.491-.953-.64-.356-.149-.738-.226-1.124-.227-.386-.001-.77.074-1.126.22l-.118-.088zM76.645 24.625l14.44 35.29c.146.358.145.76-.004 1.119-.149.358-.433.642-.79.792L53.649 76.824c-.36.146-.761.145-1.12-.004-.357-.148-.642-.433-.792-.79L37.298 40.74c-.141-.348-.144-.737-.007-1.087.137-.35.403-.634.742-.794L74.675 23.86c.36-.147.761-.145 1.12.003.357.15.642.433.792.79l.058-.029zM53.03.687L62.911 24.8c.097.246.092.52-.013.762-.104.243-.3.434-.546.532L37.297 36.358c-.246.097-.52.092-.762-.012-.243-.105-.434-.301-.532-.546l-9.881-23.968c-.097-.245-.092-.52.013-.762.104-.242.3-.433.546-.532L51.707.07c.245-.096.52-.092.762.013s.433.3.532.546l.029.059z"/>
    <path fill="#fff" d="M85.436 59.208c.27-.11.484-.32.597-.588.113-.268.115-.57.006-.838-.11-.27-.32-.484-.588-.597-.268-.113-.57-.115-.838-.006l-10.205 4.205c-.269.11-.484.321-.597.589-.113.267-.115.569-.006.837.11.27.321.484.589.597.267.113.569.116.838.006l10.204-4.205zM83.936 55.59c.27-.108.484-.32.597-.587.113-.268.115-.57.006-.838-.109-.27-.32-.484-.588-.597-.268-.113-.569-.115-.838-.006l-7 2.94c-.268.11-.483.321-.596.589-.113.267-.115.569-.006.838.11.269.32.484.588.597.268.113.57.115.838.006l7-2.941zM82.438 51.945c.166-.154.28-.355.325-.576.046-.22.022-.45-.069-.657-.09-.207-.242-.38-.436-.497-.193-.116-.418-.17-.643-.152l-7 2.94c-.132.055-.254.134-.356.235-.103.101-.184.221-.24.354-.056.132-.085.274-.086.418-.001.144.026.287.08.42.054.133.134.254.235.357.1.102.22.184.353.24.133.056.275.085.419.086.143.001.286-.026.42-.08l6.998-3.088zM55.915 23.419c.133-.054.254-.134.357-.235.102-.1.184-.22.24-.353.056-.133.085-.275.086-.419 0-.143-.026-.286-.08-.42-.054-.133-.134-.254-.235-.356-.101-.102-.221-.184-.354-.24-.132-.056-.274-.085-.418-.086-.144-.001-.287.026-.42.08l-10.204 4.235c-.27.109-.484.32-.597.588-.113.267-.115.569-.006.838.11.269.32.484.588.597.268.113.57.115.838.006l10.205-4.235zM54.414 19.802c.137-.054.262-.135.368-.237.106-.103.191-.225.25-.36.059-.135.09-.28.093-.428.002-.147-.025-.294-.078-.43-.055-.138-.135-.263-.237-.369-.103-.106-.225-.19-.36-.25-.136-.058-.281-.09-.428-.092-.148-.003-.294.024-.431.078l-6.97 2.94c-.133.055-.254.135-.357.236-.102.1-.184.22-.24.353-.056.133-.085.275-.086.418-.001.144.026.287.08.42.054.133.134.255.235.357.101.102.221.184.354.24.267.113.569.115.838.006l6.97-2.882zM52.944 16.155c.269-.109.483-.32.596-.588.114-.267.116-.569.007-.838-.11-.269-.321-.484-.589-.597-.267-.113-.569-.115-.838-.006l-6.999 2.941c-.133.054-.254.134-.357.235-.102.1-.184.22-.24.353-.056.133-.085.275-.086.419-.001.143.026.286.08.42.054.133.134.254.235.356.101.103.221.184.354.24.267.113.569.115.838.006l6.999-2.94z"/>
</svg>
