<?xml version="1.0" encoding="UTF-8"?>
<svg xmlns="http://www.w3.org/2000/svg" width="26" height="26" fill="none" viewBox="0 0 26 26">
    <path fill="#fff" d="M17.53 14.43c-.439-.466-1.015-.466-1.482 0l-1.042 1.043c-.11.11-.165.11-.302.055-.22-.137-.466-.22-.686-.357-1.015-.63-1.865-1.454-2.606-2.387-.356-.466-.686-.96-.933-1.509-.027-.11-.027-.164.055-.274.357-.329.686-.686 1.043-1.015.494-.494.494-1.042 0-1.536l-.823-.823-.85-.85c-.44-.44-1.016-.44-1.482 0L7.38 7.818c-.33.33-.494.713-.55 1.152-.054.713.11 1.427.358 2.085.52 1.427 1.316 2.634 2.276 3.786 1.29 1.564 2.854 2.77 4.664 3.649.823.384 1.646.685 2.552.768.63.027 1.18-.137 1.618-.631.302-.357.631-.631.96-.96.467-.494.467-1.07 0-1.537-.603-.576-1.18-1.124-1.728-1.7z"/>
    <path stroke="#fff" stroke-miterlimit="10" stroke-width="2.5" d="M24.75 13c0 6.49-5.26 11.75-11.75 11.75S1.25 19.49 1.25 13 6.51 1.25 13 1.25 24.75 6.51 24.75 13z"/>
</svg>
