<svg xmlns="http://www.w3.org/2000/svg" width="29" height="25" fill="none" viewBox="0 0 29 25">
    <path fill="#E82C2A" d="M11.75.969V5.75c-1.5.083-2.635.365-3.406.844-.771.458-1.313 1.218-1.625 2.281-.313 1.042-.469 2.542-.469 4.5h5.5v11.406H.469V13.938c0-4.48.948-7.76 2.844-9.844C5.229 2.01 8.041.969 11.75.969zm17.031 0V5.75c-1.5.083-2.635.354-3.406.813-.77.437-1.333 1.197-1.688 2.28-.333 1.063-.5 2.574-.5 4.532h5.594v11.406H17.438V13.938c0-4.48.947-7.76 2.843-9.844 1.896-2.084 4.73-3.125 8.5-3.125z"/>
</svg>
