<svg width="46" height="32" viewBox="0 0 46 32" fill="none" xmlns="http://www.w3.org/2000/svg">
<path d="M41 14H29V16H41V14Z" fill="white"/>
<path d="M9.2002 32C7.0002 32 5.2002 30.2 5.2002 28C5.2002 25.8 7.0002 24 9.2002 24C11.4002 24 13.2002 25.8 13.2002 28C13.2002 30.2 11.4002 32 9.2002 32ZM9.2002 26C8.1002 26 7.2002 26.9 7.2002 28C7.2002 29.1 8.1002 30 9.2002 30C10.3002 30 11.2002 29.1 11.2002 28C11.2002 26.9 10.3002 26 9.2002 26Z" fill="white"/>
<path d="M36 32C33.8 32 32 30.2 32 28C32 25.8 33.8 24 36 24C38.2 24 40 25.8 40 28C40 30.2 38.2 32 36 32ZM36 26C34.9 26 34 26.9 34 28C34 29.1 34.9 30 36 30C37.1 30 38 29.1 38 28C38 26.9 37.1 26 36 26Z" fill="white"/>
<path d="M46 28H38.1L37.9 27.3C37.6 26.5 36.9 26 36 26C35.2 26 34.4 26.5 34.1 27.3L33.9 28H11.3L11 27.3C10.7 26.5 10 26 9.1 26C8.3 26 7.5 26.5 7.2 27.3L7.1 28H0V26H5.7C6.4 24.8 7.7 24 9.2 24C10.6 24 11.9 24.8 12.7 26H28V6H37.6L41.7 14.3L46 16.4V28ZM39.5 26H44V17.6L40.3 15.7L36.4 8H30V26H32.5C33.2 24.8 34.5 24 36 24C37.4 24 38.7 24.8 39.5 26Z" fill="white"/>
<path d="M30 27H28V2H5V27H3V0H30V27Z" fill="white"/>
<path d="M8.2364 15.5363L20.6731 15.5363L17.7879 18.4215L19.3975 20.0311L25.0312 14.3974L19.3975 8.76367L17.7879 10.3733L20.6731 13.2585L8.2364 13.2585L8.2364 15.5363Z" fill="white"/>
</svg>
