<svg xmlns="http://www.w3.org/2000/svg" width="46" height="32" fill="none" viewBox="0 0 46 32">
    <path fill="#fff" d="M8.236 15.536h12.437l-2.885 2.886 1.61 1.61 5.633-5.635-5.633-5.633-1.61 1.61 2.885 2.884H8.236v2.278zM41 14H29v2h12v-2zM9.2 32c-2.2 0-4-1.8-4-4s1.8-4 4-4 4 1.8 4 4-1.8 4-4 4zm0-6c-1.1 0-2 .9-2 2s.9 2 2 2 2-.9 2-2-.9-2-2-2zM36 32c-2.2 0-4-1.8-4-4s1.8-4 4-4 4 1.8 4 4-1.8 4-4 4zm0-6c-1.1 0-2 .9-2 2s.9 2 2 2 2-.9 2-2-.9-2-2-2z"/>
    <path fill="#fff" d="M46 28h-7.9l-.2-.7c-.3-.8-1-1.3-1.9-1.3-.8 0-1.6.5-1.9 1.3l-.2.7H11.3l-.3-.7c-.3-.8-1-1.3-1.9-1.3-.8 0-1.6.5-1.9 1.3l-.1.7H0v-2h5.7c.7-1.2 2-2 3.5-2 1.4 0 2.7.8 3.5 2H28V6h9.6l4.1 8.3 4.3 2.1V28zm-6.5-2H44v-8.4l-3.7-1.9L36.4 8H30v18h2.5c.7-1.2 2-2 3.5-2 1.4 0 2.7.8 3.5 2z"/>
    <path fill="#fff" d="M30 27h-2V2H5v25H3V0h27v27z"/>
</svg>
