<svg xmlns="http://www.w3.org/2000/svg" width="19" height="19" fill="none" viewBox="0 0 19 19">
    <path fill-rule="evenodd" stroke="#E82C2A" stroke-linecap="round" stroke-linejoin="round" stroke-width="1.75" d="M9.52 18h8.479s.06-1.552-.737-2.999c-1.128-2.049-2.95-1.848-5.9-2.956V9.827s1.107-.739 1.107-2.217c.368 0 .737-1.478 0-1.848 0-.22.988-2.07.737-3.326-.369-1.848-5.53-1.848-5.9-.37-2.211 0-.736 3.396-.736 3.696-.738.37-.37 1.848 0 1.848 0 1.478 1.106 2.217 1.106 2.217v2.218c-2.95 1.108-4.294.953-5.9 2.956C.745 16.29 1.04 18 1.04 18h8.48z" clip-rule="evenodd"/>
</svg>
